<svg viewBox="0 0 17 14" fill="none" xmlns="http://www.w3.org/2000/svg">
<path d="M0 13.068C0.888 12.348 1.68 11.4 2.376 10.224C3.072 9.048 3.528 7.836 3.744 6.588V0C5.016 0 5.94 0.36 6.516 1.08C7.116 1.8 7.416 2.904 7.416 4.392C7.416 5.472 7.32 6.552 7.128 7.632C6.936 8.712 6.672 9.72 6.336 10.656C6 11.592 5.592 12.396 5.112 13.068H0ZM3.744 6.876C2.688 6.876 1.872 6.576 1.296 5.976C0.72 5.376 0.432 4.524 0.432 3.42C0.432 2.34 0.72 1.5 1.296 0.9C1.872 0.3 2.688 0 3.744 0C4.8 0 5.616 0.3 6.192 0.9C6.768 1.5 7.056 2.34 7.056 3.42C7.056 4.524 6.768 5.376 6.192 5.976C5.616 6.576 4.8 6.876 3.744 6.876ZM9.504 13.068C10.392 12.348 11.184 11.4 11.88 10.224C12.576 9.048 13.032 7.836 13.248 6.588V0C14.52 0 15.444 0.36 16.02 1.08C16.62 1.8 16.92 2.904 16.92 4.392C16.92 5.472 16.824 6.552 16.632 7.632C16.44 8.712 16.176 9.72 15.84 10.656C15.504 11.592 15.096 12.396 14.616 13.068H9.504ZM13.248 6.876C12.192 6.876 11.376 6.576 10.8 5.976C10.224 5.376 9.936 4.524 9.936 3.42C9.936 2.34 10.224 1.5 10.8 0.9C11.376 0.3 12.192 0 13.248 0C14.304 0 15.12 0.3 15.696 0.9C16.272 1.5 16.56 2.34 16.56 3.42C16.56 4.524 16.272 5.376 15.696 5.976C15.12 6.576 14.304 6.876 13.248 6.876Z" fill="currentColor"/>
</svg>
