<svg class="w-full" viewBox="0 0 35 24" fill="none" xmlns="http://www.w3.org/2000/svg">
<path d="M13.6863 23.2193C14.0869 22.6069 14.8614 22.4386 15.7361 22.2771C20.7771 21.3618 25.2239 18.5687 28.6424 14.8469C29.2834 14.147 29.8309 12.3904 29.1899 11.9529C27.5274 11.4078 25.9784 11.2059 24.4828 10.3848C23.7083 9.96077 22.8403 8.13688 22.7935 7.20138C22.6266 3.91702 24.6363 1.00283 27.7945 0.168286C28.5757 -0.0403508 30.2382 3.05772e-05 31.0795 0.181747C33.3363 0.673054 34.8786 2.92768 34.9921 5.28326C35.3994 14.1402 25.6713 21.7589 17.0448 23.6837C15.8763 23.9462 14.9282 24.2827 13.693 23.2193H13.6863Z" fill="black"/>
<path d="M1.22734 22.3242C9.01921 21.5502 17.0181 14.147 15.6293 12.2289C14.8414 11.1386 11.6699 11.677 10.1476 9.81944C8.13119 7.3629 9.05259 3.93722 11.069 1.85084C12.4044 0.464417 13.8399 0.00676082 15.7428 3.05869e-05C18.073 -0.00669964 20.1161 1.09706 20.7972 3.49302C23.5146 13.1105 10.5349 23.4212 0.940232 24L0.0321814 23.0578C-0.181478 22.8357 0.719896 22.3713 1.22734 22.3242Z" fill="black"/>
</svg>
