<svg viewBox="0 0 17 14" fill="none" xmlns="http://www.w3.org/2000/svg">
<path d="M16.956 0C16.068 0.720001 15.276 1.668 14.58 2.844C13.884 3.996 13.428 5.208 13.212 6.48V13.068C11.964 13.068 11.028 12.708 10.404 11.988C9.804 11.268 9.504 10.164 9.504 8.676C9.504 7.572 9.6 6.492 9.792 5.436C9.984 4.356 10.248 3.348 10.584 2.412C10.944 1.452 11.352 0.648 11.808 0H16.956ZM13.212 6.192C14.268 6.192 15.084 6.492 15.66 7.092C16.236 7.692 16.524 8.544 16.524 9.648C16.524 10.728 16.236 11.568 15.66 12.168C15.084 12.768 14.268 13.068 13.212 13.068C12.156 13.068 11.328 12.768 10.728 12.168C10.152 11.568 9.864 10.728 9.864 9.648C9.864 8.544 10.152 7.692 10.728 7.092C11.328 6.492 12.156 6.192 13.212 6.192ZM7.452 0C6.564 0.720001 5.772 1.668 5.076 2.844C4.38 3.996 3.924 5.208 3.708 6.48V13.068C2.46 13.068 1.524 12.708 0.900001 11.988C0.3 11.268 0 10.164 0 8.676C0 7.572 0.0960001 6.492 0.288 5.436C0.48 4.356 0.744 3.348 1.08 2.412C1.44 1.452 1.848 0.648 2.304 0H7.452ZM3.708 6.192C4.764 6.192 5.58 6.492 6.156 7.092C6.732 7.692 7.02 8.544 7.02 9.648C7.02 10.728 6.732 11.568 6.156 12.168C5.58 12.768 4.764 13.068 3.708 13.068C2.652 13.068 1.824 12.768 1.224 12.168C0.648 11.568 0.360001 10.728 0.360001 9.648C0.360001 8.544 0.648 7.692 1.224 7.092C1.824 6.492 2.652 6.192 3.708 6.192Z" fill="currentColor"/>
</svg>
