<svg class="w-full" viewBox="0 0 35 24" fill="none" xmlns="http://www.w3.org/2000/svg">
<path d="M21.3182 0.780706C20.9176 1.39316 20.143 1.56141 19.2684 1.72294C14.2274 2.63825 9.78059 5.4313 6.36204 9.15311C5.72107 9.85306 5.17357 11.6096 5.81454 12.0471C7.47708 12.5923 9.0261 12.7942 10.5217 13.6153C11.2962 14.0393 12.1642 15.8632 12.211 16.7987C12.3779 20.083 10.3681 22.9972 7.21 23.8317C6.42881 24.0404 4.76628 24 3.925 23.8183C1.66823 23.327 0.125874 21.0723 0.0123677 18.7168C-0.39492 9.85979 9.33324 2.24117 17.9597 0.316322C19.1282 0.0538433 20.0763 -0.28267 21.3115 0.780706H21.3182Z" fill="black"/>
<path d="M33.7772 1.67583C25.9853 2.44981 17.9864 9.85306 19.3752 11.7712C20.1631 12.8615 23.3346 12.3231 24.8569 14.1806C26.8733 16.6371 25.9519 20.0628 23.9355 22.1492C22.6001 23.5356 21.1646 23.9933 19.2617 24C16.9315 24.0067 14.8884 22.903 14.2073 20.507C11.4899 10.8895 24.4696 0.5788 34.0643 0L34.9723 0.942234C35.186 1.16433 34.2846 1.62872 33.7772 1.67583Z" fill="black"/>
</svg>
